<?xml version="1.0" encoding="UTF-8" standalone="no"?>
<!-- Created with Inkscape (http://www.inkscape.org/) -->

<svg
   width="24.37335mm"
   height="22.145679mm"
   viewBox="0 0 24.37335 22.145679"
   version="1.1"
   id="svg1"
   inkscape:version="1.4 (e7c3feb100, 2024-10-09)"
   sodipodi:docname="oidc.svg"
   xmlns:inkscape="http://www.inkscape.org/namespaces/inkscape"
   xmlns:sodipodi="http://sodipodi.sourceforge.net/DTD/sodipodi-0.dtd"
   xmlns="http://www.w3.org/2000/svg"
   xmlns:svg="http://www.w3.org/2000/svg">
  <sodipodi:namedview
     id="namedview1"
     pagecolor="#ffffff"
     bordercolor="#000000"
     borderopacity="0.25"
     inkscape:showpageshadow="2"
     inkscape:pageopacity="0.0"
     inkscape:pagecheckerboard="0"
     inkscape:deskcolor="#d1d1d1"
     inkscape:document-units="mm"
     inkscape:zoom="1.6748036"
     inkscape:cx="45.676998"
     inkscape:cy="42.393031"
     inkscape:window-width="3840"
     inkscape:window-height="2091"
     inkscape:window-x="0"
     inkscape:window-y="0"
     inkscape:window-maximized="1"
     inkscape:current-layer="layer1" />
  <defs
     id="defs1" />
  <g
     inkscape:label="Layer 1"
     inkscape:groupmode="layer"
     id="layer1"
     transform="translate(-92.868741,-137.31876)">
    <g
       transform="matrix(0.00272999,0,0,0.00272999,124.22213,106.26458)"
       id="g2202">
      <path
         d="m -3436.8,14543.2 c -848,-528 -2032,-856 -3328,-856 -2608,0 -4720,1304 -4720,2912 0,1472 1760,2680 4040,2888 v -848 c -1536,-192 -2688,-1032 -2688,-2040 0,-1144 1504,-2080 3368,-2080 928,0 1768,232 2376,608 l -864,536 h 2696 v -1664 z"
         style="fill:#cccccc;fill-opacity:1"
         id="path2204" />
      <path
         d="m -7444.8,12247.2 v 6392 848 l 1352,-848 v -7264 z"
         style="fill:#ff6200;fill-opacity:1"
         id="path2206" />
    </g>
  </g>
</svg>
